interfectorB.sfdir
StartChar: exclam
Encoding: 33 33 1
Width: 711
Flags: W
LayerCount: 2
Fore
SplineSet
120 100 m 1,0,-1
 530 100 l 1,1,-1
 530 -310 l 1,2,-1
 120 -310 l 1,3,-1
 120 100 l 1,0,-1
530 1903 m 1,4,-1
 530 263 l 1,5,-1
 120 263 l 1,6,-1
 120 1902 l 1,7,-1
 530 1903 l 1,4,-1
EndSplineSet
EndChar
StartChar: quotedbl
Encoding: 34 34 2
Width: 1230
Flags: W
LayerCount: 2
Fore
SplineSet
514 1926 m 1,0,-1
 514 1107 l 1,1,-1
 102 1107 l 1,2,-1
 102 1926 l 1,3,-1
 514 1926 l 1,0,-1
1128 1926 m 1,4,-1
 1128 1107 l 1,5,-1
 718 1107 l 1,6,-1
 718 1926 l 1,7,-1
 1128 1926 l 1,4,-1
EndSplineSet
Validated: 1
EndChar
StartChar: numbersign
Encoding: 35 35 3
Width: 2320
Flags: W
LayerCount: 2
Fore
SplineSet
961 1868 m 1,0,-1
 961 1458 l 1,1,-1
 1371 1458 l 1,2,-1
 1371 1868 l 1,3,-1
 1778 1868 l 1,4,-1
 1778 1458 l 1,5,-1
 2190 1458 l 1,6,-1
 2190 1049 l 1,7,-1
 1778 1049 l 1,8,-1
 1778 639 l 1,9,-1
 2190 639 l 1,10,-1
 2190 230 l 1,11,-1
 1778 230 l 1,12,-1
 1778 -180 l 1,13,-1
 1371 -180 l 1,14,-1
 1371 230 l 1,15,-1
 961 230 l 1,16,-1
 961 -180 l 1,17,-1
 552 -180 l 1,18,-1
 552 230 l 1,19,-1
 140 230 l 1,20,-1
 140 639 l 1,21,-1
 552 639 l 1,22,-1
 552 1049 l 1,23,-1
 140 1049 l 1,24,-1
 140 1458 l 1,25,-1
 552 1458 l 1,26,-1
 552 1868 l 1,27,-1
 961 1868 l 1,0,-1
961 1049 m 1,28,-1
 961 639 l 1,29,-1
 1371 639 l 1,30,-1
 1371 1049 l 1,31,-1
 961 1049 l 1,28,-1
EndSplineSet
Validated: 1
EndChar
StartChar: dollar
Encoding: 36 36 4
Width: 1871
Flags: W
LayerCount: 2
Fore
SplineSet
734 1825 m 1,0,-1
 1144 1825 l 1,1,-1
 1144 1637 l 1,2,-1
 1758 1637 l 1,3,-1
 1758 1227 l 1,4,-1
 1144 1227 l 1,5,-1
 1144 1022 l 1,6,-1
 1758 1022 l 1,7,-1
 1758 -2 l 1,8,-1
 1144 -2 l 1,9,-1
 1144 -223 l 1,10,-1
 734 -223 l 1,11,-1
 734 -2 l 1,12,-1
 120 -2 l 1,13,-1
 120 408 l 1,14,-1
 734 408 l 1,15,-1
 734 613 l 1,16,-1
 120 613 l 1,17,-1
 120 1637 l 1,18,-1
 734 1637 l 1,19,-1
 734 1825 l 1,0,-1
530 1227 m 1,20,-1
 530 1022 l 1,21,-1
 734 1022 l 1,22,-1
 734 1227 l 1,23,-1
 530 1227 l 1,20,-1
1144 408 m 1,24,-1
 1349 408 l 1,25,-1
 1349 613 l 1,26,-1
 1144 613 l 1,27,-1
 1144 408 l 1,24,-1
EndSplineSet
Validated: 1
EndChar
StartChar: percent
Encoding: 37 37 5
Width: 1680
Flags: W
LayerCount: 2
Fore
SplineSet
387 -624 m 1,0,-1
 6 -472 l 1,1,-1
 1069 2192 l 1,2,-1
 1450 2040 l 1,3,-1
 387 -624 l 1,0,-1
-358 2090 m 1,4,-1
 470 2090 l 1,5,-1
 470 1262 l 1,6,-1
 -358 1262 l 1,7,-1
 -358 2090 l 1,4,-1
-38 1582 m 1,8,-1
 150 1582 l 1,9,-1
 150 1770 l 1,10,-1
 -38 1770 l 1,11,-1
 -38 1582 l 1,8,-1
1114 508 m 1,12,-1
 1942 508 l 1,13,-1
 1942 -320 l 1,14,-1
 1114 -320 l 1,15,-1
 1114 508 l 1,12,-1
1434 0 m 1,16,-1
 1622 0 l 1,17,-1
 1622 188 l 1,18,-1
 1434 188 l 1,19,-1
 1434 0 l 1,16,-1
EndSplineSet
Validated: 1
EndChar
StartChar: ampersand
Encoding: 38 38 6
Width: 1340
Flags: W
LayerCount: 2
Fore
SplineSet
684 1084 m 1,0,1
 812 1190 812 1190 812 1294 c 0,2,3
 812 1340 812 1340 796.5 1362.5 c 128,-1,4
 781 1385 781 1385 750 1385 c 0,5,6
 732 1385 732 1385 695.5 1321.5 c 128,-1,7
 659 1258 659 1258 659 1237 c 0,8,9
 659 1170 659 1170 684 1084 c 1,0,1
608 811 m 1,10,11
 436 696 436 696 374 634 c 0,12,13
 253 513 253 513 253 379 c 0,14,15
 253 270 253 270 340 201 c 0,16,17
 421 138 421 138 533 138 c 0,18,19
 735 138 735 138 882 309 c 1,20,21
 806 422 806 422 608 811 c 1,10,11
481 1237 m 0,22,23
 481 1337 481 1337 564 1447 c 0,24,25
 653 1564 653 1564 750 1564 c 0,26,27
 864 1564 864 1564 929 1484 c 0,28,29
 990 1411 990 1411 990 1294 c 0,30,31
 990 1091 990 1091 749 910 c 1,32,33
 826 741 826 741 986 485 c 1,34,35
 1006 540 1006 540 1016 599 c 0,36,37
 1032 701 1032 701 1039 726 c 0,38,39
 1065 808 1065 808 1119 808 c 0,40,41
 1161 808 1161 808 1185 763 c 0,42,43
 1205 726 1205 726 1205 680 c 0,44,45
 1205 477 1205 477 1101 304 c 1,46,47
 1268 42 1268 42 1268 -7 c 0,48,49
 1268 -43 1268 -43 1239.5 -68.5 c 128,-1,50
 1211 -94 1211 -94 1175 -94 c 0,51,52
 1130 -94 1130 -94 1098 -43 c 2,53,-1
 983 156 l 1,54,55
 782 -40 782 -40 533 -40 c 0,56,57
 346 -40 346 -40 214 75 c 0,58,59
 75 195 75 195 75 379 c 0,60,61
 75 573 75 573 222 732 c 0,62,63
 307 824 307 824 532 974 c 1,64,65
 481 1109 481 1109 481 1237 c 0,22,23
EndSplineSet
Validated: 1
EndChar
StartChar: quotesingle
Encoding: 39 39 7
Width: 795
Flags: W
LayerCount: 2
Fore
SplineSet
462 1446 m 0,0,1
 462 1416 462 1416 467 1357 c 128,-1,2
 472 1298 472 1298 472 1268 c 0,3,4
 472 1140 472 1140 382 1140 c 0,5,6
 320 1140 320 1140 303 1184 c 0,7,8
 295 1207 295 1207 295 1279 c 0,9,10
 295 1307 295 1307 289.5 1362.5 c 128,-1,11
 284 1418 284 1418 284 1446 c 0,12,13
 284 1546 284 1546 292 1581 c 0,14,15
 312 1660 312 1660 380 1660 c 0,16,17
 418 1660 418 1660 444 1635.5 c 128,-1,18
 470 1611 470 1611 470 1573 c 0,19,20
 470 1552 470 1552 466 1509.5 c 128,-1,21
 462 1467 462 1467 462 1446 c 0,0,1
EndSplineSet
Validated: 1
EndChar
StartChar: parenleft
Encoding: 40 40 6
Width: 1023
Flags: W
LayerCount: 2
Fore
SplineSet
512 2247 m 1,0,-1
 921 2247 l 1,1,-1
 921 1838 l 1,2,-1
 716 1838 l 1,3,-1
 512 1633 l 1,4,-1
 512 -3 l 1,5,-1
 716 -209 l 1,6,-1
 921 -209 l 1,7,-1
 921 -620 l 1,8,-1
 512 -620 l 1,9,-1
 102 -209 l 1,10,-1
 102 1838 l 1,11,-1
 512 2247 l 1,0,-1
EndSplineSet
Validated: 1
EndChar
StartChar: parenright
Encoding: 41 41 9
Width: 799
Flags: W
LayerCount: 2
Fore
SplineSet
228 -7 m 1,0,-1
 228 1629 l 1,1,-1
 24 1835 l 1,2,-1
 -181 1835 l 1,3,-1
 -181 2246 l 1,4,-1
 228 2246 l 1,5,-1
 638 1835 l 1,6,-1
 638 -212 l 1,7,-1
 228 -621 l 1,8,-1
 228 -621 l 1,9,-1
 -181 -621 l 1,10,-1
 -181 -212 l 1,11,-1
 24 -212 l 1,12,-1
 228 -7 l 1,0,-1
EndSplineSet
Validated: 5
EndChar
StartChar: asterisk
Encoding: 42 42 10
Width: 1388
Flags: W
LayerCount: 2
Fore
SplineSet
1162 1657 m 1,0,-1
 731 1587 l 1,1,-1
 565 1707 l 1,2,-1
 526 2134 l 1,3,-1
 647 2301 l 1,4,-1
 812 2182 l 1,5,-1
 829 1894 l 1,6,-1
 830 1896 l 1,7,-1
 1115 1942 l 1,8,-1
 1281 1822 l 1,9,-1
 1162 1657 l 1,0,-1
265 1421 m 1,10,-1
 584 1720 l 1,11,-1
 789 1712 l 1,12,-1
 1083 1395 l 1,13,-1
 1077 1189 l 1,14,-1
 872 1197 l 1,15,-1
 673 1409 l 1,16,-1
 674 1408 l 1,17,-1
 463 1211 l 1,18,-1
 258 1219 l 1,19,-1
 265 1421 l 1,10,-1
760 1640 m 1,20,-1
 574 1557 l 1,21,-1
 168 1708 l 1,22,-1
 84 1896 l 1,23,-1
 268 1981 l 1,24,-1
 541 1877 l 1,25,-1
 541 1879 l 1,26,-1
 760 1640 l 1,20,-1
EndSplineSet
Validated: 5
EndChar
StartChar: plus
Encoding: 43 43 9
Width: 1186
Flags: W
LayerCount: 2
Fore
SplineSet
1084 941 m 1,0,-1
 1084 695 l 1,1,-1
 716 695 l 1,2,-1
 716 338 l 1,3,-1
 471 338 l 1,4,-1
 471 695 l 1,5,-1
 102 695 l 1,6,-1
 102 941 l 1,7,-1
 471 941 l 1,8,-1
 471 1320 l 1,9,-1
 716 1320 l 1,10,-1
 716 941 l 1,11,-1
 1084 941 l 1,0,-1
EndSplineSet
Validated: 1
EndChar
StartChar: comma
Encoding: 44 44 12
Width: 656
Flags: W
LayerCount: 2
Fore
SplineSet
530 -290 m 1,0,-1
 120 -290 l 1,1,-1
 120 630 l 1,2,-1
 530 630 l 1,3,-1
 530 -290 l 1,0,-1
EndSplineSet
Validated: 1
EndChar
StartChar: hyphen
Encoding: 45 45 11
Width: 1332
Flags: W
LayerCount: 2
Fore
SplineSet
1212 1024 m 1,0,-1
 1212 614 l 1,1,-1
 120 614 l 1,2,-1
 120 1024 l 1,3,-1
 1212 1024 l 1,0,-1
EndSplineSet
EndChar
StartChar: period
Encoding: 46 46 14
Width: 592
Flags: W
LayerCount: 2
Fore
SplineSet
510 0 m 1,0,-1
 100 0 l 1,1,-1
 100 410 l 1,2,-1
 510 410 l 1,3,-1
 510 0 l 1,0,-1
EndSplineSet
Validated: 1
EndChar
StartChar: slash
Encoding: 47 47 13
Width: 1648
Flags: W
LayerCount: 2
Fore
SplineSet
483 -624 m 1,0,-1
 102 -472 l 1,1,-1
 1165 2192 l 1,2,-1
 1546 2040 l 1,3,-1
 483 -624 l 1,0,-1
EndSplineSet
Validated: 1
EndChar
StartChar: zero
Encoding: 48 48 153
Width: 1834
Flags: W
LayerCount: 2
Fore
SplineSet
100 0 m 1,0,-1
 100 1638 l 1,1,-1
 1738 1638 l 1,2,-1
 1738 0 l 1,3,-1
 100 0 l 1,0,-1
1534 1434 m 1,4,-1
 305 1434 l 1,5,-1
 305 205 l 1,6,-1
 1534 205 l 1,7,-1
 1534 1434 l 1,4,-1
EndSplineSet
EndChar
StartChar: one
Encoding: 49 49 14
Width: 614
Flags: W
LayerCount: 2
Fore
SplineSet
512 1638 m 1,0,-1
 512 0 l 1,1,-1
 102 0 l 1,2,-1
 102 1638 l 1,3,-1
 307 1638 l 1,4,-1
 512 1638 l 1,0,-1
EndSplineSet
Validated: 1
EndChar
StartChar: two
Encoding: 50 50 17
Width: 1876
Flags: W
LayerCount: 2
Fore
SplineSet
1554 1434 m 1,0,-1
 325 1434 l 1,1,-1
 325 1229 l 1,2,-1
 120 1229 l 1,3,-1
 120 1638 l 1,4,-1
 1758 1638 l 1,5,-1
 1758 717 l 1,6,-1
 325 717 l 1,7,-1
 325 205 l 1,8,-1
 1758 205 l 1,9,-1
 1758 0 l 1,10,-1
 120 0 l 1,11,-1
 120 922 l 1,12,-1
 1554 922 l 1,13,-1
 1554 1434 l 1,14,-1
 1554 1434 l 1,0,-1
EndSplineSet
EndChar
StartChar: three
Encoding: 51 51 19
Width: 1882
Flags: W
LayerCount: 2
Fore
SplineSet
1574 1434 m 1,0,-1
 345 1434 l 1,1,-1
 345 1229 l 1,2,-1
 140 1229 l 1,3,-1
 140 1638 l 1,4,-1
 1778 1638 l 1,5,-1
 1778 0 l 1,6,-1
 140 0 l 1,7,-1
 140 410 l 1,8,-1
 345 410 l 1,9,-1
 345 205 l 1,10,-1
 1574 205 l 1,11,-1
 1574 717 l 1,12,-1
 756 717 l 1,13,-1
 756 922 l 1,14,-1
 1574 922 l 1,15,-1
 1574 1434 l 1,16,-1
 1574 1434 l 1,0,-1
EndSplineSet
Validated: 5
EndChar
StartChar: four
Encoding: 52 52 17
Width: 1842
Flags: W
LayerCount: 2
Fore
SplineSet
512 1638 m 1,0,-1
 512 1024 l 1,1,-1
 1740 1024 l 1,2,-1
 1740 0 l 1,3,-1
 1330 0 l 1,4,-1
 1330 614 l 1,5,-1
 102 614 l 1,6,-1
 102 1638 l 1,7,-1
 307 1638 l 1,8,-1
 512 1638 l 1,0,-1
EndSplineSet
Validated: 1
EndChar
StartChar: five
Encoding: 53 53 18
Width: 1842
Flags: W
LayerCount: 2
Fore
SplineSet
1740 1228 m 1,0,-1
 512 1228 l 1,1,-1
 512 1028 l 1,2,-1
 1740 1028 l 1,3,-1
 1740 0 l 1,4,-1
 102 0 l 1,5,-1
 102 512 l 1,6,-1
 512 512 l 1,7,-1
 512 410 l 1,8,-1
 1330 410 l 1,9,-1
 1330 614 l 1,10,-1
 102 614 l 1,11,-1
 102 1638 l 1,12,-1
 1740 1638 l 1,13,-1
 1740 1434 l 1,14,-1
 1740 1228 l 1,0,-1
EndSplineSet
Validated: 1
EndChar
StartChar: six
Encoding: 54 54 19
Width: 1842
Flags: W
LayerCount: 2
Fore
SplineSet
1740 1228 m 1,0,-1
 512 1228 l 1,1,-1
 512 1024 l 5,2,-1
 1740 1024 l 5,3,-1
 1740 0 l 1,4,-1
 102 0 l 1,5,-1
 102 1638 l 1,6,-1
 1740 1638 l 1,7,-1
 1740 1228 l 1,0,-1
1330 614 m 1,8,-1
 512 614 l 1,9,-1
 512 410 l 1,10,-1
 1330 410 l 1,11,-1
 1330 614 l 1,8,-1
EndSplineSet
Validated: 1
EndChar
StartChar: seven
Encoding: 55 55 20
Width: 1842
Flags: W
LayerCount: 2
Fore
SplineSet
102 1638 m 1,0,-1
 1740 1638 l 1,1,-1
 1740 0 l 1,2,-1
 1330 0 l 1,3,-1
 1330 1228 l 1,4,-1
 512 1228 l 1,5,-1
 512 1126 l 1,6,-1
 102 1126 l 1,7,-1
 102 1638 l 1,0,-1
EndSplineSet
Validated: 1
EndChar
StartChar: eight
Encoding: 56 56 24
Width: 1819
Flags: W
LayerCount: 2
Fore
SplineSet
100 0 m 1,0,-1
 100 1638 l 1,1,-1
 1738 1638 l 1,2,-1
 1738 0 l 1,3,-1
 100 0 l 1,0,-1
1534 1434 m 1,4,-1
 305 1434 l 1,5,-1
 305 922 l 1,6,-1
 1534 922 l 1,7,-1
 1534 1434 l 1,4,-1
1534 717 m 1,8,-1
 305 717 l 1,9,-1
 305 205 l 1,10,-1
 1534 205 l 1,11,-1
 1534 717 l 1,8,-1
EndSplineSet
Validated: 1
EndChar
StartChar: nine
Encoding: 57 57 24
Width: 1956
Flags: W
LayerCount: 2
Fore
SplineSet
140 717 m 1,0,-1
 140 1638 l 1,1,-1
 1778 1638 l 1,2,-1
 1778 0 l 1,3,-1
 140 0 l 1,4,-1
 140 205 l 1,5,-1
 1574 205 l 1,6,-1
 1574 717 l 1,7,-1
 140 717 l 1,0,-1
1574 1434 m 1,8,-1
 345 1434 l 1,9,-1
 345 922 l 1,10,-1
 1574 922 l 1,11,-1
 1574 1434 l 1,8,-1
EndSplineSet
Validated: 1
EndChar
StartChar: colon
Encoding: 58 58 25
Width: 650
Flags: W
LayerCount: 2
Fore
SplineSet
530 1228 m 5,0,-1
 120 1228 l 5,1,-1
 120 1638 l 5,2,-1
 530 1638 l 5,3,-1
 530 1228 l 5,0,-1
530 0 m 5,4,-1
 120 0 l 5,5,-1
 120 410 l 5,6,-1
 530 410 l 5,7,-1
 530 0 l 5,4,-1
EndSplineSet
EndChar
StartChar: semicolon
Encoding: 59 59 24
AltUni2: 00037e.ffffffff.0
Width: 614
Flags: W
LayerCount: 2
Fore
SplineSet
512 1228 m 1,0,-1
 102 1228 l 1,1,-1
 102 1638 l 1,2,-1
 512 1638 l 1,3,-1
 512 1228 l 1,0,-1
512 -459 m 1,4,-1
 102 -459 l 1,5,-1
 102 410 l 1,6,-1
 512 410 l 1,7,-1
 512 -459 l 1,4,-1
EndSplineSet
Validated: 1
EndChar
StartChar: less
Encoding: 60 60 28
Width: 781
Flags: W
LayerCount: 2
Fore
SplineSet
298 614 m 1,0,1
 354 573 354 573 436 487 c 0,2,3
 533 386 533 386 569 355 c 128,-1,4
 605 324 605 324 605 287 c 256,5,6
 605 250 605 250 578 222 c 128,-1,7
 551 194 551 194 515 194 c 0,8,9
 487 194 487 194 459 215 c 0,10,11
 419 244 419 244 288 381 c 0,12,13
 188 486 188 486 95 522 c 0,14,15
 19 550 19 550 19 605 c 0,16,17
 19 655 19 655 88 688 c 0,18,19
 181 733 181 733 292 850 c 0,20,21
 447 1012 447 1012 476.5 1036.5 c 128,-1,22
 506 1061 506 1061 536 1061 c 0,23,24
 572 1061 572 1061 599.5 1033.5 c 128,-1,25
 627 1006 627 1006 627 969 c 0,26,27
 627 935 627 935 597 905 c 0,28,29
 501 803 501 803 298 614 c 1,0,1
EndSplineSet
Validated: 1
EndChar
StartChar: equal
Encoding: 61 61 26
Width: 1186
Flags: W
LayerCount: 2
Fore
SplineSet
1084 1132 m 1,0,-1
 1084 887 l 1,1,-1
 102 887 l 1,2,-1
 102 1132 l 1,3,-1
 1084 1132 l 1,0,-1
1084 751 m 1,4,-1
 1084 505 l 1,5,-1
 102 505 l 1,6,-1
 102 751 l 1,7,-1
 1084 751 l 1,4,-1
EndSplineSet
Validated: 1
EndChar
StartChar: greater
Encoding: 62 62 30
Width: 1233
Flags: W
LayerCount: 2
Fore
SplineSet
1047.8359375 835 m 1,0,-1
 475.078125 262.243164062 l 1,1,-1
 185.1640625 552.157226562 l 1,2,-1
 468.0078125 835 l 1,3,-1
 185.1640625 1117.84277344 l 1,4,-1
 475.078125 1407.75683594 l 1,5,-1
 1047.8359375 835 l 1,0,-1
EndSplineSet
EndChar
StartChar: question
Encoding: 63 63 28
Width: 1226
InSpiro: 1
Flags: W
LayerCount: 2
Fore
SplineSet
102 0 m 1,0,-1
 102 410 l 1,1,-1
 512 410 l 1,2,-1
 512 0 l 1,3,-1
 102 0 l 1,0,-1
  Spiro
    102 0 v
    102 410 v
    512 410 v
    512 0 v
    0 0 z
  EndSpiro
714 1485 m 1,4,-1
 714 1894 l 1,5,-1
 102 1894 l 1,6,-1
 102 2304 l 1,7,-1
 1124 2304 l 1,8,-1
 1124 1075 l 1,9,-1
 512 1075 l 1,10,-1
 512 820 l 1,11,-1
 102 820 l 1,12,-1
 102 1485 l 1,13,-1
 714 1485 l 1,4,-1
  Spiro
    714 1485 v
    714 1894 v
    102 1894 v
    102 2304 v
    1124 2304 v
    1124 1075 v
    512 1075 v
    512 820 v
    102 820 v
    102 1485 v
    0 0 z
  EndSpiro
EndSplineSet
Validated: 1
EndChar
StartChar: at
Encoding: 64 64 29
Width: 2334
Flags: W
LayerCount: 2
Fore
SplineSet
1822 1330 m 1,0,-1
 512 1330 l 1,1,-1
 512 20 l 1,2,-1
 2232 20 l 1,3,-1
 2232 -390 l 1,4,-1
 102 -390 l 1,5,-1
 102 1740 l 1,6,-1
 2232 1740 l 1,7,-1
 2232 102 l 1,8,-1
 594 102 l 1,9,-1
 594 511 l 1,10,-1
 1822 1330 l 1,0,-1
1208 511 m 1,11,-1
 1822 511 l 1,12,-1
 1822 921 l 1,13,-1
 1208 511 l 1,11,-1
EndSplineSet
Validated: 1
EndChar
StartChar: A
Encoding: 65 65 30
Width: 2047
Flags: W
LayerCount: 2
Fore
SplineSet
102 1843 m 1,0,-1
 1945 1843 l 1,1,-1
 1945 0 l 1,2,-1
 102 0 l 1,3,-1
 102 461 l 1,4,-1
 1484 1382 l 1,5,-1
 102 1382 l 1,6,-1
 102 1843 l 1,0,-1
1484 922 m 1,7,-1
 793 461 l 1,8,-1
 1484 461 l 1,9,-1
 1484 922 l 1,7,-1
EndSplineSet
Validated: 1
EndChar
StartChar: B
Encoding: 66 66 33
Width: 2014
Flags: W
LayerCount: 2
Fore
SplineSet
541 2304 m 1,0,-1
 541 1843 l 1,1,-1
 1923 1843 l 1,2,-1
 1923 0 l 1,3,-1
 80 0 l 1,4,-1
 80 2304 l 1,5,-1
 541 2304 l 1,0,-1
1462 1382 m 1,6,-1
 541 1382 l 1,7,-1
 541 461 l 1,8,-1
 1462 461 l 1,9,-1
 1462 1382 l 1,6,-1
EndSplineSet
Validated: 1
EndChar
StartChar: C
Encoding: 67 67 34
Width: 2083
Flags: W
LayerCount: 2
Fore
SplineSet
1963 461 m 5,0,-1
 1963 0 l 1,1,-1
 120 0 l 1,2,-1
 120 1843 l 1,3,-1
 1963 1843 l 1,4,-1
 1963 1382 l 1,5,-1
 581 1382 l 1,6,-1
 581 461 l 5,7,-1
 1963 461 l 5,0,-1
EndSplineSet
Validated: 1
EndChar
StartChar: D
Encoding: 68 68 33
Width: 2047
Flags: W
LayerCount: 2
Fore
SplineSet
1945 2304 m 1,0,-1
 1945 0 l 1,1,-1
 102 0 l 1,2,-1
 102 1843 l 1,3,-1
 1484 1843 l 1,4,-1
 1484 2304 l 1,5,-1
 1945 2304 l 1,0,-1
1484 1382 m 1,6,-1
 563 1382 l 1,7,-1
 563 461 l 1,8,-1
 1484 461 l 1,9,-1
 1484 1382 l 1,6,-1
EndSplineSet
Validated: 1
EndChar
StartChar: E
Encoding: 69 69 36
Width: 2083
Flags: W
LayerCount: 2
Fore
SplineSet
1963 0 m 1,0,-1
 120 0 l 1,1,-1
 120 1843 l 1,2,-1
 1963 1843 l 1,3,-1
 1963 1382 l 1,4,-1
 581 461 l 1,5,-1
 1963 461 l 1,6,-1
 1963 0 l 1,0,-1
581 1382 m 1,7,-1
 581 922 l 1,8,-1
 1272 1382 l 1,9,-1
 581 1382 l 1,7,-1
EndSplineSet
EndChar
StartChar: F
Encoding: 70 70 35
Width: 2047
Flags: W
LayerCount: 2
Fore
SplineSet
563 1382 m 1,0,-1
 563 922 l 1,1,-1
 1254 922 l 1,2,-1
 1254 461 l 1,3,-1
 563 461 l 1,4,-1
 563 0 l 1,5,-1
 102 0 l 1,6,-1
 102 1843 l 1,7,-1
 1945 1843 l 1,8,-1
 1945 1382 l 1,9,-1
 563 1382 l 1,0,-1
EndSplineSet
Validated: 1
EndChar
StartChar: G
Encoding: 71 71 38
Width: 2083
Flags: W
LayerCount: 2
Fore
SplineSet
1502 691 m 1,0,-1
 811 691 l 1,1,-1
 811 1152 l 1,2,-1
 1963 1152 l 1,3,-1
 1963 0 l 1,4,-1
 120 0 l 1,5,-1
 120 1843 l 1,6,-1
 1963 1843 l 1,7,-1
 1963 1382 l 1,8,-1
 581 1382 l 1,9,-1
 581 461 l 1,10,-1
 1502 461 l 1,11,-1
 1502 691 l 1,12,-1
 1502 691 l 1,0,-1
EndSplineSet
EndChar
StartChar: H
Encoding: 72 72 40
Width: 2093
Flags: W
LayerCount: 2
Fore
SplineSet
1963 0 m 1,0,-1
 1502 0 l 1,1,-1
 1502 1382 l 1,2,-1
 581 1382 l 1,3,-1
 581 0 l 1,4,-1
 120 0 l 1,5,-1
 120 2304 l 1,6,-1
 581 2304 l 1,7,-1
 581 1843 l 1,8,-1
 1963 1843 l 1,9,-1
 1963 0 l 1,10,-1
 1963 0 l 1,0,-1
EndSplineSet
Validated: 5
EndChar
StartChar: I
Encoding: 73 73 40
Width: 728
Flags: W
LayerCount: 2
Fore
SplineSet
591 1843 m 1,0,-1
 591 0 l 1,1,-1
 130 0 l 1,2,-1
 130 1843 l 1,3,-1
 591 1843 l 1,4,-1
 591 1843 l 1,0,-1
EndSplineSet
Validated: 5
EndChar
StartChar: J
Encoding: 74 74 41
Width: 2083
Flags: W
LayerCount: 2
Fore
SplineSet
1963 1843 m 1,0,-1
 1963 0 l 1,1,-1
 120 0 l 1,2,-1
NamedP: "1843" 
 120 461 l 1,3,-1
 1502 461 l 1,4,-1
 1502 1843 l 5,5,-1
 1963 1843 l 1,6,-1
 1963 1843 l 1,0,-1
EndSplineSet
EndChar
StartChar: K
Encoding: 75 75 42
Width: 2083
Flags: W
LayerCount: 2
Fore
SplineSet
1963 1382 m 1,0,-1
 906 1382 l 1,1,-1
 1963 326 l 1,2,-1
 1963 0 l 1,3,-1
 1638 0 l 1,4,-1
 581 1057 l 1,5,-1
 581 0 l 1,6,-1
 120 0 l 1,7,-1
 120 1843 l 1,8,-1
 1963 1843 l 1,9,-1
 1963 1382 l 1,10,-1
 1963 1382 l 1,0,-1
EndSplineSet
EndChar
StartChar: L
Encoding: 76 76 41
Width: 2083
Flags: W
LayerCount: 2
Fore
SplineSet
581 461 m 1,0,-1
 1963 461 l 1,1,-1
 1963 0 l 1,2,-1
 120 0 l 1,3,-1
NamedP: "1843" 
 120 1843 l 1,4,-1
 581 1843 l 1,5,-1
 581 461 l 1,0,-1
EndSplineSet
Validated: 1
EndChar
StartChar: M
Encoding: 77 77 44
Width: 2654
Flags: W
LayerCount: 2
Fore
SplineSet
571 1382 m 1,0,-1
 571 0 l 1,1,-1
 110 0 l 1,2,-1
 110 1843 l 1,3,-1
 2543 1843 l 1,4,-1
 2543 0 l 1,5,-1
 2082 0 l 1,6,-1
 2082 1382 l 1,7,-1
 1557 1382 l 1,8,-1
 1557 0 l 1,9,-1
 1096 0 l 1,10,-1
 1096 1382 l 1,11,-1
 571 1382 l 1,12,-1
 571 1382 l 1,0,-1
EndSplineSet
Validated: 5
EndChar
StartChar: N
Encoding: 78 78 45
Width: 2083
Flags: W
LayerCount: 2
Fore
SplineSet
581 0 m 1,0,-1
 120 0 l 1,1,-1
 120 1843 l 1,2,-1
 1963 1843 l 1,3,-1
 1963 0 l 1,4,-1
 1502 0 l 1,5,-1
 1502 1382 l 1,6,-1
 581 1382 l 1,7,-1
 581 0 l 1,0,-1
EndSplineSet
EndChar
StartChar: O
Encoding: 79 79 44
Width: 2047
Flags: W
LayerCount: 2
Fore
SplineSet
1945 1843 m 1,0,-1
 1945 0 l 1,1,-1
 102 0 l 1,2,-1
 102 1843 l 1,3,-1
 1945 1843 l 1,0,-1
1484 1382 m 1,4,-1
 563 1382 l 1,5,-1
 563 461 l 1,6,-1
 1484 461 l 1,7,-1
 1484 1382 l 1,4,-1
EndSplineSet
Validated: 1
EndChar
StartChar: P
Encoding: 80 80 45
Width: 2083
Flags: W
LayerCount: 2
Fore
SplineSet
581 -460 m 1,0,-1
 120 -460 l 1,1,-1
 120 1844 l 1,2,-1
 1963 1844 l 1,3,-1
 1963 1 l 1,4,-1
 581 1 l 1,5,-1
 581 -460 l 1,0,-1
1502 1383 m 1,6,-1
 581 1383 l 1,7,-1
 581 462 l 1,8,-1
 1502 462 l 1,9,-1
 1502 1383 l 1,6,-1
EndSplineSet
Validated: 1
EndChar
StartChar: Q
Encoding: 81 81 46
Width: 2047
Flags: W
LayerCount: 2
Fore
SplineSet
1945 1845 m 1,0,-1
 1945 -459 l 1,1,-1
 1484 -459 l 1,2,-1
 1484 2 l 1,3,-1
 102 2 l 1,4,-1
 102 1845 l 1,5,-1
 1945 1845 l 1,0,-1
1484 1384 m 1,6,-1
 563 1384 l 1,7,-1
 563 463 l 1,8,-1
 1484 463 l 1,9,-1
 1484 1384 l 1,6,-1
EndSplineSet
Validated: 1
EndChar
StartChar: R
Encoding: 82 82 49
Width: 2083
Flags: W
LayerCount: 2
Fore
SplineSet
1963 1382 m 1,0,-1
 581 1382 l 1,1,-1
 581 0 l 1,2,-1
 120 0 l 1,3,-1
 120 1843 l 1,4,-1
NamedP: "1843" 
 1963 1843 l 1,5,-1
 1963 1382 l 1,6,-1
 1963 1382 l 1,0,-1
EndSplineSet
EndChar
StartChar: S
Encoding: 83 83 48
Width: 2083
Flags: W
LayerCount: 2
Fore
SplineSet
1963 1152 m 1,0,-1
 1963 0 l 1,1,-1
 120 0 l 1,2,-1
 120 461 l 1,3,-1
 1502 461 l 1,4,-1
 1502 691 l 1,5,-1
 120 691 l 1,6,-1
 120 1843 l 1,7,-1
 1963 1843 l 1,8,-1
 1963 1382 l 1,9,-1
 581 1382 l 1,10,-1
 581 1152 l 1,11,-1
 1963 1152 l 1,0,-1
EndSplineSet
Validated: 1
EndChar
StartChar: T
Encoding: 84 84 51
Width: 2095
Flags: W
LayerCount: 2
Fore
SplineSet
601 2304 m 1,0,-1
 601 1843 l 1,1,-1
 831 1843 l 1,2,-1
 831 1382 l 1,3,-1
 601 1382 l 1,4,-1
 601 461 l 5,5,-1
 1983 461 l 5,6,-1
 1983 0 l 1,7,-1
 140 0 l 1,8,-1
NamedP: "1843" 
 140 2304 l 1,9,-1
 601 2304 l 1,10,-1
 601 2304 l 1,0,-1
EndSplineSet
EndChar
StartChar: U
Encoding: 85 85 50
Width: 2047
Flags: W
LayerCount: 2
Fore
SplineSet
563 461 m 1,0,-1
 1484 461 l 1,1,-1
 1484 1843 l 1,2,-1
 1945 1843 l 1,3,-1
 1945 0 l 1,4,-1
 102 0 l 1,5,-1
 102 1843 l 1,6,-1
 563 1843 l 1,7,-1
 563 461 l 1,0,-1
EndSplineSet
Validated: 1
EndChar
StartChar: V
Encoding: 86 86 53
Width: 2083
Flags: W
LayerCount: 2
Fore
SplineSet
1963 1843 m 1,0,-1
 1963 1382 l 1,1,-1
 581 0 l 1,2,-1
 120 0 l 1,3,-1
 120 1843 l 1,4,-1
 581 1843 l 1,5,-1
 581 691 l 1,6,-1
 1733 1843 l 1,7,-1
 1963 1843 l 1,8,-1
 1963 1843 l 1,0,-1
EndSplineSet
EndChar
StartChar: W
Encoding: 87 87 141
Width: 2983
Flags: W
LayerCount: 2
Fore
SplineSet
2881 1382 m 5,0,-1
 1498 0 l 1,1,-1
 1038 0 l 1,2,-1
 1038 475 l 1,3,-1
 563 0 l 1,4,-1
 102 0 l 1,5,-1
 102 1843 l 1,6,-1
 563 1843 l 1,7,-1
 563 691 l 1,8,-1
 1038 1166 l 1,9,-1
 1038 1843 l 1,10,-1
 1498 1843 l 1,11,-1
 1498 691 l 1,12,-1
 2650 1843 l 1,13,-1
 2881 1843 l 5,14,-1
 2881 1382 l 5,0,-1
EndSplineSet
Validated: 1
EndChar
StartChar: X
Encoding: 88 88 54
Width: 2083
Flags: W
LayerCount: 2
Fore
SplineSet
1963 1843 m 1,0,-1
 1963 1517 l 1,1,-1
 1367 922 l 1,2,-1
 1963 326 l 1,3,-1
 1963 0 l 1,4,-1
 1638 0 l 1,5,-1
 1042 596 l 1,6,-1
 446 0 l 1,7,-1
 120 0 l 1,8,-1
 120 326 l 1,9,-1
 716 922 l 1,10,-1
 120 1517 l 1,11,-1
 120 1843 l 1,12,-1
 446 1843 l 1,13,-1
 1042 1247 l 1,14,-1
 1638 1843 l 1,15,-1
 1963 1843 l 1,16,-1
 1963 1843 l 1,0,-1
EndSplineSet
EndChar
StartChar: Y
Encoding: 89 89 53
Width: 2047
Flags: W
LayerCount: 2
Fore
SplineSet
563 463 m 1,0,-1
 1484 463 l 1,1,-1
 1484 1845 l 1,2,-1
 1945 1845 l 1,3,-1
 1945 -459 l 1,4,-1
 1484 -459 l 1,5,-1
 1484 2 l 1,6,-1
 102 2 l 1,7,-1
 102 1845 l 1,8,-1
 563 1845 l 1,9,-1
 563 463 l 1,0,-1
EndSplineSet
Validated: 1
EndChar
StartChar: Z
Encoding: 90 90 54
Width: 2047
Flags: W
LayerCount: 2
Fore
SplineSet
793 461 m 1,0,-1
 1945 461 l 1,1,-1
 1945 0 l 1,2,-1
 102 0 l 1,3,-1
 102 461 l 1,4,-1
 1254 1382 l 1,5,-1
 102 1382 l 1,6,-1
 102 1843 l 1,7,-1
 1945 1843 l 1,8,-1
 1945 1382 l 1,9,-1
 793 461 l 1,0,-1
EndSplineSet
Validated: 1
EndChar
StartChar: bracketleft
Encoding: 91 91 57
Width: 771
Flags: W
LayerCount: 2
Fore
SplineSet
969 2227 m 1,0,-1
 969 1817 l 1,1,-1
 560 1817 l 1,2,-1
 560 -230 l 1,3,-1
 969 -230 l 1,4,-1
 969 -640 l 1,5,-1
 150 -640 l 1,6,-1
 150 2227 l 1,7,-1
 969 2227 l 1,0,-1
EndSplineSet
Validated: 1
EndChar
StartChar: backslash
Encoding: 92 92 56
Width: 1520
Flags: W
LayerCount: 2
Fore
SplineSet
1497 -462 m 5,0,-1
 1118 -619 l 5,1,-1
 19 2030 l 5,2,-1
 398 2187 l 5,3,-1
 1497 -462 l 5,0,-1
EndSplineSet
Validated: 1
EndChar
StartChar: bracketright
Encoding: 93 93 57
Width: 1023
Flags: W
LayerCount: 2
Fore
SplineSet
102 -641 m 1,0,-1
 102 -231 l 1,1,-1
 511 -231 l 1,2,-1
 511 1816 l 1,3,-1
 102 1816 l 1,4,-1
 102 2226 l 1,5,-1
 921 2226 l 1,6,-1
 921 -641 l 1,7,-1
 102 -641 l 1,0,-1
EndSplineSet
Validated: 1
EndChar
StartChar: underscore
Encoding: 95 95 58
Width: 1536
Flags: W
LayerCount: 2
Fore
SplineSet
1434 0 m 1,0,-1
 1434 -410 l 1,1,-1
 102 -410 l 1,2,-1
 102 0 l 1,3,-1
 1434 0 l 1,0,-1
EndSplineSet
Validated: 1
EndChar
StartChar: grave
Encoding: 96 96 59
Width: 933
Flags: W
LayerCount: 2
Fore
SplineSet
831 1121 m 1,0,-1
 501 877 l 1,1,-1
 102 1411 l 1,2,-1
 432 1655 l 1,3,-1
 831 1121 l 1,0,-1
EndSplineSet
Validated: 1
EndChar
StartChar: a
Encoding: 97 97 60
Width: 1842
Flags: W
LayerCount: 2
Fore
SplineSet
102 1638 m 1,0,-1
 1740 1638 l 5,1,-1
 1740 0 l 5,2,-1
 102 0 l 1,3,-1
 102 410 l 1,4,-1
 1331 1229 l 1,5,-1
 102 1229 l 1,6,-1
 102 1638 l 1,0,-1
1331 819 m 1,7,-1
 716 410 l 1,8,-1
 1331 410 l 1,9,-1
 1331 819 l 1,7,-1
EndSplineSet
Validated: 1
EndChar
StartChar: b
Encoding: 98 98 61
Width: 1842
Flags: W
LayerCount: 2
Fore
SplineSet
512 2048 m 1,0,-1
 512 1638 l 1,1,-1
 1740 1638 l 5,2,-1
 1740 0 l 1,3,-1
 102 0 l 1,4,-1
 102 2048 l 1,5,-1
 512 2048 l 1,0,-1
1331 410 m 1,6,-1
 1331 1229 l 1,7,-1
 512 1229 l 1,8,-1
 512 410 l 1,9,-1
 1331 410 l 1,6,-1
EndSplineSet
Validated: 1
EndChar
StartChar: c
Encoding: 99 99 62
Width: 1842
Flags: W
LayerCount: 2
Fore
SplineSet
512 1229 m 1,0,-1
 512 410 l 1,1,-1
 1740 410 l 1,2,-1
 1740 0 l 1,3,-1
 102 0 l 1,4,-1
 102 1638 l 1,5,-1
 1740 1638 l 1,6,-1
 1740 1229 l 1,7,-1
 512 1229 l 1,0,-1
EndSplineSet
Validated: 1
EndChar
StartChar: d
Encoding: 100 100 66
Width: 1871
Flags: W
LayerCount: 2
Fore
SplineSet
1359 2048 m 1,0,-1
 1768 2048 l 1,1,-1
 1768 0 l 1,2,-1
 130 0 l 1,3,-1
 130 1638 l 1,4,-1
 1359 1638 l 1,5,-1
 1359 2048 l 1,0,-1
1359 410 m 1,6,-1
 1359 1229 l 1,7,-1
 539 1229 l 1,8,-1
 539 410 l 1,9,-1
 1359 410 l 1,6,-1
EndSplineSet
Validated: 1
EndChar
StartChar: e
Encoding: 101 101 69
Width: 1877
Flags: W
LayerCount: 2
Fore
SplineSet
1768 0 m 1,0,-1
 130 0 l 1,1,-1
 130 1638 l 1,2,-1
 1768 1638 l 1,3,-1
 1768 1229 l 1,4,-1
 540 410 l 1,5,-1
 1768 410 l 1,6,-1
 1768 0 l 1,0,-1
540 819 m 1,7,-1
 1154 1229 l 1,8,-1
 540 1229 l 1,9,-1
 540 819 l 1,7,-1
EndSplineSet
Validated: 1
EndChar
StartChar: f
Encoding: 102 102 68
Width: 1878
Flags: W
LayerCount: 2
Fore
SplineSet
530 1229 m 1,0,-1
 530 819 l 1,1,-1
 1144 819 l 1,2,-1
 1144 410 l 1,3,-1
 530 410 l 1,4,-1
 530 0 l 1,5,-1
 120 0 l 1,6,-1
 120 1638 l 1,7,-1
 1758 1638 l 1,8,-1
 1758 1229 l 1,9,-1
 530 1229 l 1,0,-1
EndSplineSet
Validated: 1
EndChar
StartChar: g
Encoding: 103 103 66
Width: 1842
Flags: W
LayerCount: 2
Fore
SplineSet
512 1229 m 5,0,-1
 512 410 l 1,1,-1
 1331 410 l 1,2,-1
 1331 614 l 1,3,-1
 716 614 l 1,4,-1
 716 1024 l 1,5,-1
 1740 1024 l 1,6,-1
 1740 0 l 1,7,-1
 102 0 l 1,8,-1
 102 1638 l 1,9,-1
 1740 1638 l 1,10,-1
 1740 1229 l 5,11,-1
 512 1229 l 5,0,-1
EndSplineSet
Validated: 1
EndChar
StartChar: h
Encoding: 104 104 72
Width: 1855
Flags: W
LayerCount: 2
Fore
SplineSet
510 2048 m 1,0,-1
 510 1638 l 1,1,-1
 1738 1638 l 1,2,-1
 1738 0 l 1,3,-1
 1329 0 l 1,4,-1
 1329 1229 l 1,5,-1
 510 1229 l 1,6,-1
 510 0 l 1,7,-1
 100 0 l 1,8,-1
 100 2048 l 1,9,-1
 510 2048 l 1,10,-1
 510 2048 l 1,0,-1
EndSplineSet
Validated: 5
EndChar
StartChar: i
Encoding: 105 105 71
Width: 650
Flags: W
LayerCount: 2
Fore
SplineSet
530 1638 m 1,0,-1
 120 1638 l 9,1,-1
 120 1229 l 1,2,-1
 527 1229 l 1,3,-1
 530 1638 l 1,0,-1
120 0 m 1,4,-1
 530 0 l 1,5,-1
 530 989 l 1,6,-1
 120 989 l 1,7,-1
 120 0 l 1,4,-1
EndSplineSet
EndChar
StartChar: j
Encoding: 106 106 72
Width: 1332
Flags: W
LayerCount: 2
Fore
SplineSet
1212 1638 m 5,0,-1
 1212 1229 l 5,1,-1
 802 1229 l 5,2,-1
 802 1638 l 5,3,-1
 1212 1638 l 5,0,-1
802 989 m 5,4,-1
 1212 989 l 5,5,-1
 1212 0 l 5,6,-1
 120 0 l 5,7,-1
 120 410 l 5,8,-1
 802 410 l 5,9,-1
 802 989 l 5,4,-1
EndSplineSet
Validated: 1
EndChar
StartChar: k
Encoding: 107 107 73
Width: 1846
Flags: W
LayerCount: 2
Fore
SplineSet
1748 1229 m 1,0,-1
 809 1229 l 1,1,-1
 1748 290 l 1,2,-1
 1748 0 l 1,3,-1
 1459 0 l 1,4,-1
 520 939 l 1,5,-1
 520 0 l 1,6,-1
 110 0 l 1,7,-1
 110 1638 l 1,8,-1
 1748 1638 l 1,9,-1
 1748 1229 l 1,10,-1
 1748 1229 l 1,0,-1
EndSplineSet
Validated: 5
EndChar
StartChar: l
Encoding: 108 108 143
Width: 1433
Flags: W
LayerCount: 2
Fore
SplineSet
512 410 m 1,0,-1
 1331 410 l 1,1,-1
 1331 0 l 1,2,-1
 102 0 l 1,3,-1
 102 1638 l 1,4,-1
 512 1638 l 1,5,-1
 512 410 l 1,0,-1
EndSplineSet
Validated: 1
EndChar
StartChar: n
Encoding: 110 110 71
Width: 1842
Flags: W
LayerCount: 2
Fore
SplineSet
512 0 m 1,0,-1
 102 0 l 1,1,-1
 102 1638 l 1,2,-1
 1740 1638 l 1,3,-1
 1740 0 l 1,4,-1
 1331 0 l 1,5,-1
 1331 1229 l 1,6,-1
 512 1229 l 1,7,-1
 512 0 l 1,0,-1
EndSplineSet
Validated: 1
EndChar
StartChar: o
Encoding: 111 111 75
Width: 1820
Flags: W
LayerCount: 2
Fore
SplineSet
80 0 m 1,0,-1
 80 1638 l 1,1,-1
 1718 1638 l 1,2,-1
 1718 0 l 1,3,-1
 80 0 l 1,0,-1
490 410 m 1,4,-1
 1309 410 l 1,5,-1
 1309 1229 l 1,6,-1
 490 1229 l 1,7,-1
 490 410 l 1,4,-1
EndSplineSet
Validated: 1
EndChar
StartChar: p
Encoding: 112 112 73
Width: 1842
Flags: W
LayerCount: 2
Fore
SplineSet
512 -413 m 1,0,-1
 102 -413 l 1,1,-1
 102 1638 l 1,2,-1
 1740 1638 l 5,3,-1
 1740 -3 l 1,4,-1
 512 -3 l 1,5,-1
 512 -413 l 1,0,-1
1331 1225 m 1,6,-1
 512 1225 l 1,7,-1
 512 406 l 1,8,-1
 1331 406 l 1,9,-1
 1331 1225 l 1,6,-1
EndSplineSet
Validated: 1
EndChar
StartChar: q
Encoding: 113 113 77
Width: 1878
Flags: W
LayerCount: 2
Fore
SplineSet
1758 1638 m 1,0,-1
 1758 -410 l 1,1,-1
 1349 -410 l 1,2,-1
 1349 0 l 1,3,-1
 120 0 l 1,4,-1
 120 1638 l 1,5,-1
 1758 1638 l 1,0,-1
529 409 m 1,6,-1
 1349 409 l 1,7,-1
 1349 1228 l 1,8,-1
 529 1228 l 1,9,-1
 529 409 l 1,6,-1
EndSplineSet
Validated: 1
EndChar
StartChar: r
Encoding: 114 114 82
Width: 1858
Flags: W
LayerCount: 2
Fore
SplineSet
1728 1229 m 1,0,-1
 500 1229 l 1,1,-1
 500 0 l 1,2,-1
 90 0 l 1,3,-1
 90 1638 l 1,4,-1
 1728 1638 l 1,5,-1
 1728 1229 l 1,6,-1
 1728 1229 l 1,0,-1
EndSplineSet
Validated: 5
EndChar
StartChar: s
Encoding: 115 115 79
Width: 1878
Flags: W
LayerCount: 2
Fore
SplineSet
530 1024 m 1,0,-1
 1758 1024 l 1,1,-1
 1758 0 l 1,2,-1
 120 0 l 1,3,-1
 120 410 l 1,4,-1
 1349 410 l 1,5,-1
 1349 614 l 1,6,-1
 120 614 l 1,7,-1
 120 1638 l 1,8,-1
 1758 1638 l 1,9,-1
 1758 1229 l 1,10,-1
 530 1229 l 1,11,-1
 530 1024 l 1,12,-1
 530 1024 l 1,0,-1
EndSplineSet
EndChar
StartChar: t
Encoding: 116 116 80
Width: 1827
Flags: W
LayerCount: 2
Fore
SplineSet
520 2048 m 1,0,-1
 520 1638 l 1,1,-1
 929 1638 l 1,2,-1
 929 1229 l 1,3,-1
 520 1229 l 1,4,-1
 520 410 l 1,5,-1
 1748 410 l 1,6,-1
 1748 0 l 1,7,-1
 110 0 l 1,8,-1
NamedP: "1638" 
 110 2048 l 1,9,-1
 520 2048 l 1,10,-1
 520 2048 l 1,0,-1
EndSplineSet
EndChar
StartChar: u
Encoding: 117 117 85
Width: 1855
Flags: W
LayerCount: 2
Fore
SplineSet
500 1638 m 1,0,-1
 500 410 l 1,1,-1
 1319 410 l 1,2,-1
 1319 1638 l 1,3,-1
 1728 1638 l 1,4,-1
 1728 0 l 1,5,-1
 90 0 l 1,6,-1
 90 1638 l 1,7,-1
 500 1638 l 1,8,-1
 500 1638 l 1,0,-1
EndSplineSet
Validated: 5
EndChar
StartChar: v
Encoding: 118 118 86
Width: 1862
Flags: W
LayerCount: 2
Fore
SplineSet
1758 1638 m 1,0,-1
 1758 1229 l 1,1,-1
 530 0 l 1,2,-1
 120 0 l 1,3,-1
 120 1638 l 1,4,-1
 530 1638 l 1,5,-1
 530 614 l 1,6,-1
 1554 1638 l 1,7,-1
 1758 1638 l 1,8,-1
 1758 1638 l 1,0,-1
EndSplineSet
Validated: 5
EndChar
StartChar: w
Encoding: 119 119 83
Width: 2710
Flags: W
LayerCount: 2
Fore
SplineSet
1361 0 m 1,0,-1
 951 0 l 1,1,-1
 951 422 l 1,2,-1
 530 0 l 1,3,-1
 120 0 l 1,4,-1
 120 1638 l 1,5,-1
 530 1638 l 1,6,-1
 530 614 l 1,7,-1
 951 1036 l 1,8,-1
 951 1638 l 1,9,-1
 1361 1638 l 1,10,-1
 1361 614 l 1,11,-1
 2385 1638 l 1,12,-1
 2590 1638 l 1,13,-1
 2590 1229 l 1,14,-1
 1361 0 l 1,0,-1
EndSplineSet
Validated: 1
EndChar
StartChar: x
Encoding: 120 120 84
Width: 1878
Flags: W
LayerCount: 2
Fore
SplineSet
1758 1638 m 1,0,-1
 1758 1349 l 1,1,-1
 1229 819 l 1,2,-1
 1758 290 l 1,3,-1
 1758 0 l 1,4,-1
 1469 0 l 1,5,-1
 939 530 l 1,6,-1
 410 0 l 1,7,-1
 120 0 l 1,8,-1
 120 290 l 1,9,-1
 650 819 l 1,10,-1
 120 1349 l 1,11,-1
 120 1638 l 1,12,-1
 410 1638 l 5,13,-1
 939 1109 l 1,14,-1
 1469 1638 l 1,15,-1
 1758 1638 l 1,16,-1
 1758 1638 l 1,0,-1
EndSplineSet
EndChar
StartChar: y
Encoding: 121 121 85
Width: 1878
Flags: W
LayerCount: 2
Fore
SplineSet
528 399 m 5,0,-1
 1350 407 l 1,1,-1
 1350 1638 l 1,2,-1
 1758 1638 l 1,3,-1
 1758 -412 l 1,4,-1
 1350 -412 l 1,5,-1
 1350 -2 l 1,6,-1
 120 -2 l 1,7,-1
 120 1638 l 1,8,-1
 528 1638 l 1,9,-1
 528 399 l 5,0,-1
EndSplineSet
Validated: 1
EndChar
StartChar: z
Encoding: 122 122 83
Width: 1842
Flags: W
LayerCount: 2
Fore
SplineSet
1740 1229 m 1,0,-1
 716 410 l 1,1,-1
 1740 410 l 1,2,-1
 1740 0 l 1,3,-1
 102 0 l 1,4,-1
 102 410 l 1,5,-1
 1126 1229 l 1,6,-1
 102 1229 l 1,7,-1
 102 1638 l 1,8,-1
 1740 1638 l 1,9,-1
 1740 1229 l 1,0,-1
EndSplineSet
Validated: 1
EndChar
StartChar: braceleft
Encoding: 123 123 84
Width: 1433
Flags: W
LayerCount: 2
Fore
SplineSet
1331 -630 m 1,0,-1
 921 -630 l 1,1,-1
 512 -219 l 1,2,-1
 512 599 l 1,3,-1
 102 599 l 1,4,-1
 102 1009 l 1,5,-1
 512 1009 l 1,6,-1
 512 1828 l 1,7,-1
 921 2237 l 1,8,-1
 1331 2237 l 1,9,-1
 1331 1828 l 1,10,-1
 1126 1828 l 1,11,-1
 921 1623 l 1,12,-1
 921 -13 l 1,13,-1
 1126 -219 l 1,14,-1
 1331 -219 l 1,15,-1
 1331 -630 l 1,0,-1
EndSplineSet
Validated: 1
EndChar
StartChar: bar
Encoding: 124 124 85
Width: 614
Flags: W
LayerCount: 2
Fore
SplineSet
512 -630 m 1,0,-1
 102 -630 l 1,1,-1
 102 2238 l 1,2,-1
 512 2238 l 1,3,-1
 512 -630 l 1,0,-1
EndSplineSet
Validated: 1
EndChar
StartChar: braceright
Encoding: 125 125 89
Width: 1447
Flags: W
LayerCount: 2
Fore
SplineSet
89 -631 m 1,0,-1
 89 -222 l 1,1,-1
 294 -222 l 1,2,-1
 499 -17 l 1,3,-1
 499 1619 l 1,4,-1
 294 1825 l 1,5,-1
 89 1825 l 1,6,-1
 89 1826 l 1,7,-1
 89 2236 l 1,8,-1
 89 2236 l 1,9,-1
 499 2236 l 1,10,-1
 908 1825 l 1,11,-1
 908 1007 l 1,12,-1
 1318 1007 l 1,13,-1
 1318 597 l 1,14,-1
 908 597 l 1,15,-1
 908 -222 l 1,16,-1
 499 -631 l 1,17,-1
 89 -631 l 1,0,-1
EndSplineSet
Validated: 5
EndChar
StartChar: dieresis
Encoding: 168 168 92
Width: 1878
VWidth: 0
Flags: WO
LayerCount: 2
Fore
SplineSet
1348 2048 m 1,0,-1
 1758 2048 l 1,1,-1
 1758 1843 l 1,2,-1
 1348 1843 l 1,3,-1
 1348 2048 l 1,0,-1
120 2048 m 1,4,-1
 530 2048 l 1,5,-1
 530 1843 l 1,6,-1
 120 1843 l 1,7,-1
 120 2048 l 1,4,-1
EndSplineSet
EndChar
StartChar: Adieresis
Encoding: 196 196 90
Width: 2083
Flags: W
LayerCount: 2
Fore
SplineSet
1502 2303 m 5,0,-1
 1963 2303 l 5,1,-1
 1963 2047 l 5,2,-1
 1502 2047 l 5,3,-1
 1502 2303 l 5,0,-1
120 2304 m 5,4,-1
 581 2304 l 5,5,-1
 581 2048 l 5,6,-1
 120 2048 l 5,7,-1
 120 2304 l 5,4,-1
EndSplineSet
Refer: 30 65 N 1 0 0 1 0 0 2
Validated: 1
EndChar
StartChar: Odieresis
Encoding: 223 214 97
Width: 2083
Flags: W
LayerCount: 2
Fore
SplineSet
1502 2303 m 1
 1963 2303 l 1
 1963 2047 l 1
 1502 2047 l 1
 1502 2303 l 1
120 2304 m 1
 581 2304 l 1
 581 2048 l 1
 120 2048 l 1
 120 2304 l 1
EndSplineSet
Refer: 46 79 N 1 0 0 1 0 0 2
EndChar
StartChar: Udieresis
Encoding: 220 220 91
Width: 2047
Flags: W
LayerCount: 2
Fore
SplineSet
1484 1842 m 1,0,-1
 1945 1842 l 1,1,-1
 1945 1381 l 1,2,-1
 1484 1381 l 1,3,-1
 1484 1842 l 1,0,-1
102 1843 m 1,4,-1
 563 1843 l 1,5,-1
 563 1382 l 1,6,-1
 102 1382 l 1,7,-1
 102 1843 l 1,4,-1
563 461 m 1,8,-1
 1484 461 l 1,9,-1
 1484 921 l 1,10,-1
 1945 921 l 1,11,-1
 1945 0 l 1,12,-1
 102 0 l 1,13,-1
 102 921 l 1,14,-1
 563 921 l 1,15,-1
 563 461 l 1,8,-1
EndSplineSet
Validated: 1
EndChar
StartChar: germandbls
Encoding: 223 223 142
Width: 1842
Flags: W
LayerCount: 2
Fore
SplineSet
512 0 m 1,0,-1
 102 3 l 1,1,-1
 102 2048 l 1,2,-1
 1740 2048 l 1,3,-1
 1740 205 l 1,4,-1
 1330 205 l 1,5,-1
 1330 676 l 1,6,-1
 921 676 l 1,7,-1
 921 1086 l 1,8,-1
 1330 1086 l 1,9,-1
 1330 1638 l 1,10,-1
 512 1638 l 1,11,-1
 512 0 l 1,0,-1
EndSplineSet
Validated: 1
EndChar
StartChar: adieresis
Encoding: 228 228 146
Width: 1878
Flags: W
LayerCount: 2
Fore
SplineSet
735.010742188 1638 m 1,0,-1
 1236 1638 l 5,1,-1
 1212 1249 l 1,2,-1
 1349 1258 l 1,3,-1
 1353 1638 l 1,4,-1
 1758 1638 l 1,5,-1
 1758 1216 l 1,6,-1
 1395 1210 l 1,7,-1
 1395 1060 l 1,8,-1
 1758 1066 l 1,9,-1
 1758 0 l 1,10,-1
 120 0 l 1,11,-1
 120 410 l 1,12,-1
 1349 1229 l 1,13,-1
 735.908203125 1229 l 1,14,-1
 735.010742188 1638 l 1,0,-1
530.669921875 1229 m 1,15,-1
 120 1229 l 1,16,-1
 120 1638 l 1,17,-1
 530.815429688 1638 l 1,18,-1
 530.669921875 1229 l 1,15,-1
1349 819 m 1,19,-1
 734 410 l 1,20,-1
 1349 410 l 1,21,-1
 1349 819 l 1,19,-1
EndSplineSet
EndChar
StartChar: udieresis
Encoding: 252 252 92
Width: 1878
Flags: W
LayerCount: 2
Fore
SplineSet
1348 2048 m 5,0,-1
 1758 2048 l 5,1,-1
 1758 1838 l 5,2,-1
 1348 1838 l 5,3,-1
 1348 2048 l 5,0,-1
120 2048 m 5,4,-1
 530 2048 l 5,5,-1
 530 1838 l 5,6,-1
 120 1838 l 5,7,-1
 120 2048 l 5,4,-1
EndSplineSet
Refer: 78 117 N 1 0 0 1 0 0 2
Validated: 1
EndChar
StartChar: EndSplineSet
Encoding: 363 -1 211
Width: 2048
VWidth: 0
LayerCount: 2
Comment: "." 
EndChar
StartChar: SplineSet
Encoding: 322 -1 132
Width: 2048
VWidth: 0
LayerCount: 2
Comment: "." 
EndChar
